<svg width="231" height="38" viewBox="0 0 231 38" fill="none" xmlns="http://www.w3.org/2000/svg">
<path d="M0 0V30.2364H10.8378V18.2406H23.0968V30.2364H34.4295V19.7381L23.0968 4.3066V10.6789H10.8378V0H0Z" fill="#5A5C5F"/>
<path d="M22.7266 0L36.6594 18.5539V30.2364H47.992V18.5539L62.1091 0H49.8501L42.4178 11.2418L35.7277 0H22.7266Z" fill="#5A5C5F"/>
<path d="M65.2423 20.4816V20.2214H71.6587V20.9966C71.6587 23.673 72.9851 24.751 78.8014 24.751C83.9335 24.751 85.1336 23.9757 85.1336 22.0321C85.1336 20.2638 84.1493 19.616 81.1964 19.0956L73.1535 17.9326C68.0215 17.1149 64.9844 14.5235 64.9844 9.81862C64.9844 5.45892 68.4952 0.8815 78.1171 0.8815C86.9285 0.8815 91.0394 4.98099 91.0394 11.0665V11.3267H84.5809V10.7214C84.5809 7.96004 83.1702 6.79178 77.4803 6.79178C72.8588 6.79178 71.4481 7.69984 71.4481 9.55311C71.4481 11.2364 72.3903 11.8418 74.7853 12.2719L82.8281 13.5676C89.2445 14.6031 91.5552 17.7521 91.5552 21.7242C91.5552 26.429 87.918 30.6613 78.8067 30.6613C70.1217 30.6666 65.2423 27.2149 65.2423 20.4816Z" fill="#5A5C5F"/>
<path d="M103.969 30.2365C98.9632 30.2365 95.9261 27.8628 95.9261 22.4251V13.9659H92.5469V8.6132H95.9261V4.42874H102.342V8.6132H109.275V13.9659H102.342V21.6923C102.342 23.8483 103.153 24.4111 105.422 24.4111H109.275V30.2365H103.969Z" fill="#5A5C5F"/>
<path d="M110.859 24.8837C110.859 21.687 113.212 19.7063 117.792 19.2283L126.992 18.2778V17.46C126.992 14.6562 125.75 13.8756 122.329 13.8756C119.076 13.8756 117.749 14.7412 117.749 17.1998V17.3751H111.291V17.2476C111.291 11.8949 115.739 8.18307 122.803 8.18307C129.945 8.18307 133.33 11.8949 133.33 17.5503V30.2418H127.34V25.2767H126.998C126.013 28.6434 123.018 30.6719 118.271 30.6719C113.639 30.6666 110.859 28.5106 110.859 24.8837ZM120.102 26.0892C124.466 26.0892 126.819 25.0537 126.992 21.9897L119.55 22.8552C118.007 22.9827 117.323 23.4181 117.323 24.4536C117.318 25.6166 118.218 26.0892 120.102 26.0892Z" fill="#5A5C5F"/>
<path d="M138.279 30.2364V13.9659H135.242V8.61318H138.411C139.095 4.25348 142.859 1.31693 149.449 1.31693H151.333V6.02179H148.422C145.601 6.02179 144.275 6.4944 144.443 8.61318H151.333V13.9659H144.701V30.2364H138.279ZM154.839 30.2364V13.9659H151.802V8.61318H154.965C155.649 4.25348 159.46 1.31693 166.003 1.31693H167.887V6.02179H164.976C162.155 6.02179 160.829 6.4944 161.039 8.61318H167.887V13.9659H161.297V30.2364H154.839ZM170.03 6.40943V1.31693H176.446V6.40943H170.03ZM170.03 30.2364V8.61318H176.446V30.2364H170.03Z" fill="#5A5C5F"/>
<path d="M179.875 30.2365V8.6132H185.823V15.2616H186.207C186.765 11.6347 189.328 8.18307 194.934 8.18307C200.798 8.18307 203.577 11.9799 203.577 16.775V30.2418H197.161V18.931C197.161 15.4793 195.75 14.0084 191.813 14.0084C187.749 14.0084 186.291 15.6493 186.291 19.3186V30.2365H179.875Z" fill="#5A5C5F"/>
<path d="M206.188 18.1079C206.188 12.0648 210.083 8.17773 216.499 8.17773C220.863 8.17773 223.984 10.0788 224.668 13.8331H225.01V8.60786H231V27.0822C231 34.6333 226.463 38 218.804 38C211.872 38 207.509 34.8935 207.509 29.4558H213.925C213.925 31.872 214.867 32.6048 219.231 32.6048C223.336 32.6048 224.579 31.7392 224.579 27.5123V22.6375H224.237C223.552 25.8289 221.026 28.0327 216.236 28.0327C209.867 28.0327 206.188 24.1934 206.188 18.1079ZM218.468 22.4676C222.573 22.4676 224.584 21.3046 224.584 18.3256V17.853C224.584 14.9164 222.531 13.796 218.552 13.796C214.446 13.796 212.646 14.9164 212.646 18.1132C212.646 21.2993 214.446 22.4676 218.468 22.4676Z" fill="#5A5C5F"/>
</svg>
